<svg class="kl-hidden" xmlns="http://www.w3.org/2000/svg"><symbol id="Navigation_Arrow_Arrow--Bottom_16px"  viewBox="0 0 16 16"><path d="M8 11.5a1 1 0 01-.71-.29l-5-5a1 1 0 011.42-1.42L8 9.09l4.29-4.3a1 1 0 111.42 1.42l-5 5a1 1 0 01-.71.29z"/></symbol><symbol id="Navigation_Arrow_Arrow--Bottom_24px"  viewBox="0 0 24 24"><path d="M12.71 17.21a1 1 0 01-1.42 0l-9-9a1 1 0 111.42-1.42l8.29 8.3 8.29-8.3a1 1 0 111.42 1.42z"/></symbol><symbol id="Navigation_Arrow_Arrow--Bottom_32px"  viewBox="0 0 32 32"><path d="M16 23a1 1 0 01-.71-.29l-12-12a1 1 0 011.42-1.42L16 20.59l11.29-11.3a1 1 0 011.42 1.42l-12 12A1 1 0 0116 23z"/></symbol><symbol id="Navigation_Arrow_Arrow--Bottom_48px"  viewBox="0 0 48 48"><path d="M42.5 12.5a1.5 1.5 0 00-1.1.48L24 31.79 6.6 13a1.5 1.5 0 00-2.2 2l18.46 20a1.48 1.48 0 001.1.48 1.49 1.49 0 001.1-.48L43.6 15a1.5 1.5 0 00-.08-2.12 1.48 1.48 0 00-1.02-.38z"/></symbol><symbol id="Navigation_Arrow_Arrow--Bottom_64px"  viewBox="0 0 64 64"><path d="M58.66 18a1.5 1.5 0 00-2.12 0L32.11 43 7.68 18.06a1.5 1.5 0 10-2.14 2.1l25.14 25.63a2 2 0 001.43.6 1.94 1.94 0 001.42-.6l25.15-25.63a1.5 1.5 0 00-.02-2.16z"/></symbol><symbol id="Navigation_Arrow_Arrow--Left_16px"  viewBox="0 0 16 16"><path d="M10.5 14a1 1 0 01-.71-.29l-5-5a1 1 0 010-1.42l5-5a1 1 0 111.42 1.42L6.91 8l4.3 4.29a1 1 0 010 1.42 1 1 0 01-.71.29z"/></symbol><symbol id="Navigation_Arrow_Arrow--Left_24px"  viewBox="0 0 24 24"><path d="M16.5 22a1 1 0 01-.71-.29l-9-9a1 1 0 010-1.42l9-9a1 1 0 111.42 1.42L8.91 12l8.3 8.29a1 1 0 010 1.42 1 1 0 01-.71.29z"/></symbol><symbol id="Navigation_Arrow_Arrow--Left_32px"  viewBox="0 0 32 32"><path d="M22 29a1 1 0 01-.71-.29l-12-12a1 1 0 010-1.42l12-12a1 1 0 111.42 1.42L11.41 16l11.3 11.29a1 1 0 010 1.42A1 1 0 0122 29z"/></symbol><symbol id="Navigation_Arrow_Arrow--Left_48px"  viewBox="0 0 48 48"><path d="M35.5 42.5a1.5 1.5 0 00-.5-1.1L16.21 24 35 6.6a1.5 1.5 0 10-2-2.2L13 22.86a1.48 1.48 0 00-.5 1.14 1.49 1.49 0 00.48 1.1L33 43.6a1.5 1.5 0 002.12-.08 1.48 1.48 0 00.38-1.02z"/></symbol><symbol id="Navigation_Arrow_Arrow--Left_64px"  viewBox="0 0 64 64"><path d="M21.14 32L46.05 7.57A1.5 1.5 0 1044 5.43L18.31 30.57a2 2 0 000 2.86L44 58.57a1.5 1.5 0 002.12 0 1.5 1.5 0 000-2.12z"/></symbol><symbol id="Navigation_Arrow_Arrow--Right_16px"  viewBox="0 0 16 16"><path d="M5.5 14a1 1 0 01-.71-.29 1 1 0 010-1.42L9.09 8l-4.3-4.29a1 1 0 011.42-1.42l5 5a1 1 0 010 1.42l-5 5a1 1 0 01-.71.29z"/></symbol><symbol id="Navigation_Arrow_Arrow--Right_24px"  viewBox="0 0 24 24"><path d="M7.5 22a1 1 0 01-.71-.29 1 1 0 010-1.42l8.3-8.29-8.3-8.29a1 1 0 111.42-1.42l9 9a1 1 0 010 1.42l-9 9a1 1 0 01-.71.29z"/></symbol><symbol id="Navigation_Arrow_Arrow--Right_32px"  viewBox="0 0 32 32"><path d="M10 29a1 1 0 01-.71-.29 1 1 0 010-1.42L20.59 16 9.29 4.71a1 1 0 011.42-1.42l12 12a1 1 0 010 1.42l-12 12A1 1 0 0110 29z"/></symbol><symbol id="Navigation_Arrow_Arrow--Right_48px"  viewBox="0 0 48 48"><path d="M12.5 42.5a1.5 1.5 0 01.5-1.1L31.79 24 13 6.6a1.5 1.5 0 012-2.2l20 18.46a1.48 1.48 0 01.5 1.14 1.49 1.49 0 01-.48 1.1L15 43.6a1.5 1.5 0 01-2.12-.08 1.48 1.48 0 01-.38-1.02z"/></symbol><symbol id="Navigation_Arrow_Arrow--Right_64px"  viewBox="0 0 64 64"><path d="M45.69 30.57L20.05 5.43A1.5 1.5 0 0018 7.57L42.86 32 18 56.43a1.5 1.5 0 000 2.12 1.5 1.5 0 002.12 0l25.57-25.12a2 2 0 000-2.86z"/></symbol><symbol id="Navigation_Arrow_Arrow--Top_16px"  viewBox="0 0 16 16"><path d="M2 10.5a1 1 0 01.29-.71l5-5a1 1 0 011.42 0l5 5a1 1 0 01-1.42 1.42L8 6.91l-4.29 4.3a1 1 0 01-1.42 0A1 1 0 012 10.5z"/></symbol><symbol id="Navigation_Arrow_Arrow--Top_24px"  viewBox="0 0 24 24"><path d="M21 17.5a1 1 0 01-.71-.29L12 8.91l-8.29 8.3a1 1 0 01-1.42-1.42l9-9a1 1 0 011.42 0l9 9a1 1 0 010 1.42 1 1 0 01-.71.29z"/></symbol><symbol id="Navigation_Arrow_Arrow--Top_32px"  viewBox="0 0 32 32"><path d="M28 23a1 1 0 01-.71-.29L16 11.41 4.71 22.71a1 1 0 01-1.42-1.42l12-12a1 1 0 011.42 0l12 12a1 1 0 010 1.42A1 1 0 0128 23z"/></symbol><symbol id="Navigation_Arrow_Arrow--Top_48px"  viewBox="0 0 48 48"><path d="M42.5 35.5a1.5 1.5 0 01-1.1-.5L24 16.21 6.6 35a1.5 1.5 0 11-2.2-2l18.46-20a1.51 1.51 0 011.14-.5 1.49 1.49 0 011.1.48L43.6 33a1.5 1.5 0 01-.08 2.12 1.48 1.48 0 01-1.02.38z"/></symbol><symbol id="Navigation_Arrow_Arrow--Top_64px"  viewBox="0 0 64 64"><path d="M58.68 43.84L33.53 18.21a2 2 0 00-2.85 0L5.54 43.84a1.5 1.5 0 000 2.12 1.48 1.48 0 001.05.43 1.5 1.5 0 001.07-.45L32.11 21l24.43 24.9a1.5 1.5 0 002.14-2.1z"/></symbol><symbol id="Navigation_Control_Cross_16px"  viewBox="0 0 16 16"><path d="M9.41 8l3.3-3.29a1 1 0 10-1.42-1.42L8 6.59l-3.29-3.3a1 1 0 00-1.42 1.42L6.59 8l-3.3 3.29a1 1 0 000 1.42 1 1 0 001.42 0L8 9.41l3.29 3.3a1 1 0 001.42 0 1 1 0 000-1.42z"/></symbol><symbol id="Navigation_Control_Cross_24px"  viewBox="0 0 24 24"><path d="M13.51 12l6.29-6.29a1 1 0 000-1.42 1 1 0 00-1.41 0l-6.3 6.3-6.29-6.3a1 1 0 00-1.41 0 1 1 0 000 1.42L10.68 12l-6.29 6.29a1 1 0 00.7 1.71 1 1 0 00.71-.29l6.29-6.3 6.3 6.3a1 1 0 00.7.29 1 1 0 00.71-.29 1 1 0 000-1.42z"/></symbol><symbol id="Navigation_Control_Cross_32px"  viewBox="0 0 32 32"><path d="M17.41 16l8.8-8.79a1 1 0 10-1.42-1.42L16 14.59l-8.79-8.8a1 1 0 00-1.42 1.42l8.8 8.79-8.8 8.79a1 1 0 000 1.42 1 1 0 001.42 0l8.79-8.8 8.79 8.8a1 1 0 001.42 0 1 1 0 000-1.42z"/></symbol><symbol id="Navigation_Control_Cross_48px"  viewBox="0 0 48 48"><path d="M26.12 24l13.94-13.94a1.5 1.5 0 10-2.12-2.12L24 21.88 10.06 7.94a1.5 1.5 0 10-2.12 2.12L21.88 24 7.94 37.94a1.49 1.49 0 000 2.12 1.5 1.5 0 002.12 0L24 26.12l13.94 13.94a1.5 1.5 0 002.12 0 1.49 1.49 0 000-2.12z"/></symbol><symbol id="Navigation_Control_Cross_64px"  viewBox="0 0 64 64"><path d="M34.12 32l16.44-16.44a1.5 1.5 0 00-2.12-2.12L32 29.88 15.56 13.44a1.5 1.5 0 00-2.12 2.12L29.88 32 13.44 48.44a1.49 1.49 0 000 2.12 1.5 1.5 0 002.12 0L32 34.12l16.44 16.44a1.5 1.5 0 002.12 0 1.49 1.49 0 000-2.12z"/></symbol><symbol id="Navigation_Notification_Circle--Available_24px"  viewBox="0 0 24 24"><path d="M12 4a8 8 0 11-8 8 8 8 0 018-8m0-2a10 10 0 1010 10A10 10 0 0012 2z"/><path d="M10.73 15.75a1 1 0 01-.68-.26l-3-2.74a1 1 0 011.36-1.47l2.25 2.08 4.36-4.42a1 1 0 111.42 1.41l-5 5.1a1 1 0 01-.71.3z"/></symbol><symbol id="Navigation_Notification_Circle--Available_32px"  viewBox="0 0 32 32"><path d="M16 5A11 11 0 115 16 11 11 0 0116 5m0-2a13 13 0 1013 13A13 13 0 0016 3z"/><path d="M14.2 21.45l-5.7-5.27a1 1 0 111.35-1.47l4.28 4 8-8.09a1 1 0 011.42 0 1 1 0 010 1.41z"/></symbol><symbol id="Navigation_Notification_Circle--Available_48px"  viewBox="0 0 48 48"><path d="M24 7A17 17 0 117 24 17 17 0 0124 7m0-3a20 20 0 1020 20A20 20 0 0024 4z"/><path d="M22.58 31a2 2 0 01-2.78 0l-7.32-6.77a1.5 1.5 0 012-2.2l6.61 6.11L33.43 15.7a1.5 1.5 0 112.14 2.1z"/></symbol><symbol id="Navigation_Notification_Circle--Available_64px"  viewBox="0 0 64 64"><path d="M32 5a27 27 0 1027 27A27 27 0 0032 5zm0 51a24 24 0 1124-24 24 24 0 01-24 24z"/><path d="M45.44 22.44L30.5 37.38l-8.94-8.94a1.5 1.5 0 00-2.12 2.12l9.65 9.65a2 2 0 002.82 0l15.65-15.65a1.5 1.5 0 00-2.12-2.12z"/></symbol><symbol id="Product_Basket_Standard_24px"  viewBox="0 0 24 24"><path d="M18 16H8a1 1 0 01-1-.75L4.38 5H3a1 1 0 010-2h2.15a1 1 0 011 .75L6.71 6H20a1 1 0 01.79.38 1 1 0 01.18.86l-2 8A1 1 0 0118 16zm-9.2-2h8.42l1.5-6H7.23z"/><circle cx="16.5" cy="20" r="2"/><circle cx="9.5" cy="20" r="2"/></symbol><symbol id="Product_Basket_Standard_32px"  viewBox="0 0 32 32"><path d="M22.41 21.3H11.57a2 2 0 01-1.93-1.48L6.15 7H4a1 1 0 010-2h2.15a2 2 0 011.93 1.48l.59 2.17h16.9a2 2 0 011.88 2.69L24.29 20a2 2 0 01-1.88 1.3zm-10.84-2h10.84l3.16-8.65H9.22zM12.75 25.18a.91.91 0 11-.91.91.91.91 0 01.91-.91m0-2a2.91 2.91 0 102.91 2.91 2.91 2.91 0 00-2.91-2.91zM21.17 25.18a.91.91 0 11-.91.91.91.91 0 01.91-.91m0-2a2.91 2.91 0 102.91 2.91 2.91 2.91 0 00-2.91-2.91z"/></symbol><symbol id="Product_Basket_Standard_48px"  viewBox="0 0 48 48"><path d="M39.85 13h-27L11.6 8.47A2 2 0 009.67 7H5.55a1.5 1.5 0 000 3H8.9l5.6 20.53A2 2 0 0016.43 32h18.26a2 2 0 001.89-1.35l5.16-15A2 2 0 0039.85 13zM34 29H17.2l-3.55-13h24.8zM19 35a4.5 4.5 0 104.5 4.5A4.49 4.49 0 0019 35zm0 6a1.5 1.5 0 111.5-1.5A1.5 1.5 0 0119 41zM32 35a4.5 4.5 0 104.5 4.5A4.49 4.49 0 0032 35zm0 6a1.5 1.5 0 111.5-1.5A1.5 1.5 0 0132 41z"/></symbol><symbol id="Product_Basket_Standard_64px"  viewBox="0 0 64 64"><path d="M55.93 18.82a2 2 0 00-1.61-.82h-38l-1.74-6.52A2 2 0 0012.62 10H6.5a1.5 1.5 0 000 3h5.35l7.6 28.52A2 2 0 0021.38 43h26.25a2 2 0 001.91-1.39l6.68-21a2 2 0 00-.29-1.79zM46.9 40H22.15l-5.06-19H53zM25 47a6 6 0 106 6 6 6 0 00-6-6zm0 9a3 3 0 113-3 3 3 0 01-3 3zM44 47a6 6 0 106 6 6 6 0 00-6-6zm0 9a3 3 0 113-3 3 3 0 01-3 3z"/></symbol><symbol id="Social_View_Star--Full_16px"  viewBox="0 0 16 16"><path d="M8 11.95L4.29 14 5 9.66 2 6.58l4.15-.63L8 2l1.85 3.95 4.15.63-3 3.08.71 4.34L8 11.95z"/><path d="M8 11.95L4.29 14 5 9.66 2 6.58l4.15-.63L8 2l1.85 3.95 4.15.63-3 3.08.71 4.34L8 11.95z"/></symbol><symbol id="Social_View_Star--Full_24px"  viewBox="0 0 24 24"><path d="M12 18.58L5.82 22 7 14.76 2 9.64l6.91-1.06L12 2l3.09 6.58L22 9.64l-5 5.12L18.18 22 12 18.58z"/></symbol><symbol id="Social_View_Star--Full_32px"  viewBox="0 0 32 32"><path d="M16 24.56L7.97 29l1.53-9.41L3 12.93l8.98-1.37L16 3l4.02 8.56L29 12.93l-6.5 6.66L24.03 29 16 24.56z"/></symbol><symbol id="Social_View_Star--Full_48px"  viewBox="0 0 48 48"><path d="M24 37.17L11.64 44 14 29.53 4 19.28l13.82-2.11L24 4l6.18 13.17L44 19.28 34 29.53 36.36 44 24 37.17z"/></symbol><symbol id="Social_View_Star--Full_64px"  viewBox="0 0 64 64"><path d="M59 25.88l-18.66-2.85L32 5.25l-8.35 17.78L5 25.88l13.5 13.83-3.19 19.54L32 50.03l16.68 9.22-3.18-19.54L59 25.88z"/></symbol><symbol id="Social_View_Star--Half_16px"  viewBox="0 0 16 16"><path d="M8 11.95V2L6.15 5.95 2 6.58l3 3.08L4.29 14 8 11.95z"/><path d="M8 11.95V2L6.15 5.95 2 6.58l3 3.08L4.29 14 8 11.95z"/></symbol><symbol id="Social_View_Star--Half_24px"  viewBox="0 0 24 24"><path d="M12 18.58V2L8.91 8.58 2 9.64l5 5.12L5.82 22 12 18.58z"/></symbol><symbol id="Social_View_Star--Half_32px"  viewBox="0 0 32 32"><path d="M11.98 11.56L3 12.93l6.5 6.66L7.97 29 16 24.56V3l-4.02 8.56z"/></symbol><symbol id="Social_View_Star--Half_48px"  viewBox="0 0 48 48"><path d="M24 37.17V4l-6.18 13.17L4 19.28l10 10.25L11.64 44 24 37.17z"/></symbol><symbol id="Social_View_Star--Half_64px"  viewBox="0 0 64 64"><path d="M32 5.25l-8.35 17.78L5 25.88l13.5 13.83-3.19 19.54L32 50.03l.04.02V5.34L32 5.25z"/></symbol></svg>